<svg width="50" height="50" viewBox="0 0 50 50" fill="none" xmlns="http://www.w3.org/2000/svg">
<g clip-path="url(#clip0_4992_170)">
<path d="M6.71875 0.1563C4.9707 0.576221 3.44727 2.01177 2.90039 3.75982L2.68555 4.44341V21.7774V39.1114L2.90039 39.795C3.17383 40.6739 3.7207 41.5137 4.41406 42.1387C5.03906 42.7051 16.416 49.3165 17.4121 49.6876C20.0195 50.6739 23.1348 49.17 24.1016 46.4551C24.3262 45.8204 24.3555 45.5762 24.3945 43.877L24.4336 42.002L28.9941 41.9727L33.5449 41.9434L34.2676 41.6797C35.957 41.0645 37.1582 39.7754 37.6758 38.0372C37.8613 37.3926 37.9688 30.9278 37.8027 30.293C37.4902 29.1407 36.2305 28.6817 35.3125 29.4043C34.8145 29.795 34.8145 29.8047 34.7656 33.5938L34.7168 37.168L34.4629 37.6465C34.1895 38.1934 33.623 38.6426 33.0469 38.7696C32.8418 38.8184 30.8105 38.8672 28.5449 38.8672H24.4141V26.4356C24.4141 12.7833 24.4336 13.2715 23.8184 12.0215C23.3691 11.1036 22.5391 10.3223 21.1426 9.51177C20.498 9.13091 17.7637 7.55864 15.0586 5.99614L10.1562 3.17388L21.4941 3.14458C29.1602 3.13482 32.959 3.15435 33.2129 3.22271C33.6914 3.34966 34.2188 3.81841 34.502 4.33599C34.707 4.72661 34.7168 4.85357 34.7656 8.78911C34.8242 13.3204 34.7949 13.1348 35.5371 13.5547C36.2598 13.9649 37.1191 13.7598 37.5781 13.0567L37.8418 12.6563V8.55474C37.8418 4.58013 37.832 4.42388 37.627 3.75982C37.0703 1.99224 35.5469 0.566456 33.7695 0.146534C32.8809 -0.0585442 7.57812 -0.0585442 6.71875 0.1563ZM13.0957 8.47661C16.9824 10.7227 20.293 12.6368 20.4395 12.7344C20.5859 12.8418 20.8301 13.125 20.9766 13.3692L21.2402 13.8184L21.2695 29.3458C21.2988 46.8458 21.3477 45.5762 20.5566 46.2696C19.8047 46.9336 18.8672 47.0313 18.0176 46.5528C11.5723 42.8516 6.64062 39.9708 6.46484 39.8047C6.33789 39.6973 6.13281 39.4239 6.02539 39.209L5.81055 38.8184V21.8751C5.81055 7.05083 5.83984 4.39458 5.99609 4.39458C6.01562 4.39458 9.20898 6.23052 13.0957 8.47661Z" fill="#F44336"/>
<path d="M39.9219 14.5508C39.7266 14.6582 39.4824 14.8926 39.3652 15.0684C39.1211 15.4688 39.0918 16.1914 39.2969 16.5821C39.375 16.7285 39.9902 17.3926 40.6641 18.0664C41.3379 18.7403 41.8945 19.3164 41.8945 19.3555C41.8945 19.4043 38.584 19.4336 34.5313 19.4336H27.1777L26.8555 19.6485C26.2988 20.0293 26.123 20.3516 26.123 20.9961C26.123 21.6895 26.3281 22.0215 26.9531 22.334L27.3828 22.5586H34.6582H41.9434L40.7129 23.7989C40.0293 24.4922 39.4043 25.1563 39.3164 25.293C39.1211 25.5957 39.1113 26.377 39.3066 26.7481C39.5117 27.1485 39.9902 27.5196 40.3906 27.5977C41.1816 27.7442 41.3672 27.6075 44.1602 24.8243C45.6055 23.3985 46.8848 22.0703 47.0215 21.8653C47.3242 21.4453 47.373 20.7032 47.1387 20.2539C46.9141 19.834 41.6016 14.5801 41.2793 14.4629C40.8691 14.3067 40.3223 14.3457 39.9219 14.5508Z" fill="#F44336"/>
</g>
<defs>
<clipPath id="clip0_4992_170">
<rect width="50" height="50" fill="white"/>
</clipPath>
</defs>
</svg>
