<svg width="50" height="45" viewBox="0 0 50 45" fill="none" xmlns="http://www.w3.org/2000/svg">
<path d="M4.87348 0.209262C4.66836 0.429029 4.61952 0.931355 4.7758 1.25577C4.97116 1.65345 5.32279 1.67438 10.6755 1.66391C13.5277 1.65345 15.9696 1.62205 16.1063 1.58019C16.458 1.47554 16.7022 0.910425 16.5752 0.51275C16.5166 0.345309 16.3994 0.156936 16.3017 0.104611C16.1845 0.04182 14.0161 -4.04119e-05 10.5974 -4.04119e-05C5.19581 -4.04119e-05 5.06883 -4.04119e-05 4.87348 0.209262Z" fill="#209A5B"/>
<path d="M21.2048 0.240696C20.8629 0.627907 20.9508 1.3186 21.3513 1.52791C21.449 1.58023 23.1193 1.64302 25.0728 1.67442L28.6087 1.72675L21.2927 6.24767L13.9669 10.7791H7.26628H0.55587L0.272607 11.0826C-0.0790308 11.4593 -0.0887985 11.8465 0.233536 12.1919L0.467961 12.4535H6.92441H13.3711V17.0581V21.6628H9.27843C5.29321 21.6628 5.18576 21.6733 4.9318 21.8826C4.5704 22.186 4.5704 22.814 4.9318 23.1174C5.18576 23.3267 5.29321 23.3372 9.27843 23.3372H13.3711V27.9419V32.5465H6.92441H0.467961L0.233536 32.8081C-0.0887985 33.1535 -0.0790308 33.5407 0.272607 33.9174L0.55587 34.2209H7.26628H13.9669L22.6895 39.6105C28.6771 43.3151 31.4902 45 31.6855 45C31.8711 45 32.887 44.4349 34.6549 43.336C36.1396 42.4151 40.0565 39.9977 43.358 37.957C46.6594 35.9163 49.5116 34.1058 49.6874 33.9279L50 33.6244V22.5V11.3756L49.6874 11.0616C49.5116 10.8942 45.458 8.3407 40.6718 5.37907L31.9786 0H26.6943H21.4099L21.2048 0.240696ZM39.7341 6.73954C46.2297 10.7686 47.6362 11.6686 47.4897 11.7523C47.392 11.8151 46.3664 12.443 45.2138 13.1651C44.0612 13.8872 43.0649 14.4733 43.0063 14.4733C42.9282 14.4733 31.2851 7.39884 27.6026 5.10698L26.9384 4.68837L29.2632 3.24419C30.5427 2.44884 31.6367 1.8 31.6953 1.81047C31.7539 1.82093 35.368 4.03954 39.7341 6.73954ZM32.9065 10.2872C36.8527 12.7047 40.3886 14.8605 40.75 15.0907L41.424 15.5093L39.6658 16.5977L37.8978 17.686L29.9371 12.7988C25.5514 10.1093 21.9764 7.86977 21.9862 7.82791C22.0058 7.77558 22.7676 7.27325 23.676 6.70814C25.0533 5.86047 25.3658 5.70349 25.5319 5.78721C25.6393 5.85 28.9604 7.86977 32.9065 10.2872ZM28.345 13.7616L36.335 18.6488L34.0591 20.0616C32.8088 20.8465 31.7442 21.4849 31.6855 21.4849C31.6172 21.4849 15.9205 11.8256 15.7349 11.6686C15.6958 11.6267 20.2476 8.81163 20.3062 8.84303C20.3355 8.86395 23.9495 11.0721 28.345 13.7616ZM48.32 32.9128C48.1832 33.0488 32.7893 42.5616 32.5646 42.6558C32.4377 42.7186 32.4181 41.557 32.4377 32.85L32.467 22.9814L34.7917 21.5477L37.1066 20.114V23.7767V27.4395L37.3997 27.7535C37.6341 28.0047 37.7611 28.057 37.9759 28.0151C38.2494 27.9523 43.2798 24.907 43.5533 24.6244C43.6803 24.4988 43.7096 23.8291 43.7487 20.2291L43.7975 15.9698L46.0929 14.557L48.3883 13.1337L48.4176 22.9709C48.4372 30.7465 48.4079 32.8291 48.32 32.9128ZM22.9532 18.0733L30.8553 22.9605V32.8291V42.7081L30.6404 42.5826C30.5134 42.5093 27.2022 40.4686 23.2756 38.0407C19.3489 35.6023 15.8619 33.457 15.5395 33.2686L14.9339 32.9128V23.0442C14.9339 17.6233 14.9632 13.186 14.9925 13.186C15.0316 13.186 18.6164 15.3837 22.9532 18.0733ZM42.1858 20.2709V23.5988L40.8965 24.3837C40.1835 24.8128 39.402 25.3047 39.1383 25.4616L38.6695 25.7547L38.689 22.4267L38.7183 19.1093L40.4276 18.0419C41.3653 17.4558 42.1468 16.964 42.1663 16.964C42.1761 16.9535 42.1858 18.45 42.1858 20.2709Z" fill="#209A5B"/>
<path d="M16.6433 17.7384C16.3503 18.0419 16.321 18.5128 16.5749 18.8163C16.741 19.0256 24.2328 23.7035 24.7114 23.8919C25.1803 24.0907 25.7761 23.6407 25.7761 23.0861C25.7761 22.8035 25.3756 22.4058 24.6333 21.9558C24.2133 21.7047 22.416 20.5849 20.6285 19.4861C18.6945 18.293 17.2782 17.4768 17.1317 17.4768C16.9949 17.4768 16.7703 17.5919 16.6433 17.7384Z" fill="#209A5B"/>
<path d="M16.6429 21.6104C16.3792 21.8825 16.3206 22.3534 16.5257 22.636C16.6917 22.8662 20.677 25.3255 21.0091 25.3988C21.2142 25.4406 21.3412 25.3883 21.5854 25.1267C21.8393 24.8441 21.8784 24.7395 21.8296 24.4569C21.7905 24.279 21.7123 24.0697 21.644 24.0069C21.3119 23.6616 17.395 21.3488 17.1508 21.3488C16.9945 21.3488 16.7797 21.4534 16.6429 21.6104Z" fill="#209A5B"/>
</svg>
